<svg xmlns="http://www.w3.org/2000/svg" viewBox="0 0 1440 190">
  <path fill="#0099ff" fill-opacity="1" d="M0,128L24,138.7C48,149,96,171,144,176C192,181,240,171,288,160C336,149,384,139,432,117.3C480,96,528,64,576,53.3C624,43,672,53,720,53.3C768,53,816,43,864,64C912,85,960,139,1008,160C1056,181,1104,171,1152,149.3C1200,128,1248,96,1296,85.3C1344,75,1392,85,1416,90.7L1440,96L1440,0L1416,0C1392,0,1344,0,1296,0C1248,0,1200,0,1152,0C1104,0,1056,0,1008,0C960,0,912,0,864,0C816,0,768,0,720,0C672,0,624,0,576,0C528,0,480,0,432,0C384,0,336,0,288,0C240,0,192,0,144,0C96,0,48,0,24,0L0,0Z"></path>
</svg>
